<?xml version="1.0" standalone="no"?>
<!DOCTYPE svg PUBLIC "-//W3C//DTD SVG 20010904//EN"
 "http://www.w3.org/TR/2001/REC-SVG-20010904/DTD/svg10.dtd">
<svg version="1.0" xmlns="http://www.w3.org/2000/svg"
 width="2264.000000pt" height="2264.000000pt" viewBox="0 0 2264.000000 2264.000000"
 preserveAspectRatio="xMidYMid meet">
<metadata>
Created by potrace 1.11, written by Peter Selinger 2001-2013
</metadata>
<g transform="translate(0.000000,2264.000000) scale(0.100000,-0.100000)"
fill="#000000" stroke="none">
<path d="M2936 13848 c-9 -12 -16 -28 -16 -35 0 -7 -4 -13 -10 -13 -5 0 -10
-5 -10 -10 0 -6 -16 -36 -35 -66 -19 -30 -35 -56 -35 -59 0 -2 -66 -118 -147
-257 -81 -139 -154 -266 -162 -281 -9 -16 -20 -36 -26 -45 -5 -9 -35 -60 -65
-112 -30 -52 -62 -107 -70 -121 -25 -43 -154 -267 -176 -307 -44 -76 -167
-288 -185 -317 -10 -16 -22 -37 -26 -45 -3 -8 -54 -96 -111 -195 -58 -99 -114
-196 -125 -215 -88 -155 -112 -197 -124 -211 -7 -9 -11 -18 -8 -21 3 -3 -1
-11 -10 -18 -8 -7 -15 -19 -15 -26 0 -8 -4 -14 -9 -14 -5 0 -11 -8 -14 -17 -6
-18 -41 -81 -102 -183 -18 -30 -77 -131 -130 -225 -54 -93 -122 -210 -150
-260 -29 -49 -96 -166 -150 -260 -54 -93 -139 -240 -188 -325 -49 -85 -101
-175 -115 -200 -13 -25 -28 -49 -32 -55 -4 -5 -19 -30 -32 -55 -46 -83 -67
-118 -92 -159 -15 -22 -26 -43 -26 -47 0 -3 -12 -25 -27 -48 -16 -22 -35 -54
-43 -71 -8 -16 -18 -32 -21 -35 -3 -3 -12 -18 -21 -35 -15 -30 -32 -59 -238
-415 -116 -202 -139 -241 -162 -281 -7 -13 -17 -27 -23 -31 -5 -4 -7 -9 -4
-12 3 -4 1334 -5 2957 -4 l2951 3 -100 172 c-54 95 -99 177 -99 183 0 5 -4 10
-10 10 -5 0 -10 4 -10 10 0 5 -18 39 -40 75 -22 36 -40 67 -40 69 0 3 -102
177 -121 206 -5 8 -16 29 -24 45 -9 17 -24 44 -34 60 -53 86 -121 208 -121
216 0 5 -4 9 -10 9 -5 0 -10 4 -10 9 0 9 -53 106 -88 161 -9 14 -17 27 -17 30
0 3 -8 16 -16 30 -28 44 -242 414 -257 445 -8 17 -20 37 -27 45 -12 15 -67
112 -89 157 -6 13 -14 23 -18 23 -5 0 -8 5 -8 10 0 9 -91 170 -169 300 -11 19
-24 42 -28 50 -3 8 -18 33 -32 55 -13 22 -38 65 -54 95 -16 30 -36 62 -43 71
-8 8 -14 18 -14 22 0 4 -153 272 -215 377 -9 14 -43 73 -76 132 -33 60 -65
110 -70 114 -5 3 -9 14 -9 24 0 10 -3 20 -8 22 -9 4 -82 126 -82 139 0 5 -4 9
-8 9 -4 0 -13 12 -19 28 -7 15 -23 45 -37 67 -14 22 -30 51 -36 64 -6 13 -19
35 -29 50 -10 14 -30 47 -44 72 -14 25 -76 133 -137 240 -62 107 -122 212
-134 234 -12 22 -25 44 -29 50 -10 12 -190 323 -224 385 -13 25 -33 61 -44 80
-105 178 -129 220 -129 229 0 6 -3 11 -7 11 -5 0 -35 50 -68 110 -33 60 -63
110 -67 110 -4 0 -14 -10 -22 -22z"/>
<path d="M6033 13482 c-62 -1 -113 -5 -113 -8 0 -6 27 -54 105 -189 32 -55 65
-113 74 -130 9 -16 19 -31 24 -33 4 -2 7 -8 7 -13 0 -8 63 -119 101 -179 5 -8
12 -22 16 -30 4 -8 9 -17 12 -20 3 -3 15 -23 26 -45 11 -22 22 -42 25 -45 3
-3 33 -52 65 -110 33 -58 64 -113 70 -122 5 -9 17 -29 26 -45 9 -15 25 -44 36
-63 103 -178 123 -214 123 -221 0 -5 5 -9 10 -9 6 0 10 -5 10 -10 0 -6 23 -50
51 -98 29 -48 69 -116 89 -152 178 -307 264 -457 292 -507 17 -32 34 -60 37
-63 3 -3 19 -30 35 -60 16 -30 40 -71 53 -90 13 -19 23 -40 23 -47 0 -7 5 -13
10 -13 6 0 10 -4 10 -9 0 -5 36 -70 80 -146 44 -76 80 -139 80 -140 0 -2 18
-33 40 -69 22 -36 40 -70 40 -76 0 -5 3 -10 8 -10 4 0 13 -13 20 -30 7 -16 24
-45 37 -64 13 -19 21 -37 17 -40 -3 -3 0 -6 6 -6 7 0 12 -5 12 -10 0 -6 11
-27 23 -48 21 -33 48 -79 94 -162 8 -14 23 -38 33 -55 11 -16 26 -43 35 -60 8
-16 23 -43 33 -60 10 -16 30 -50 44 -75 14 -25 46 -80 72 -123 25 -43 46 -80
46 -82 0 -2 18 -33 40 -67 22 -35 40 -69 40 -75 0 -7 5 -13 10 -13 6 0 10 -6
10 -14 0 -7 7 -19 15 -26 8 -6 14 -15 13 -18 -4 -12 22 -52 33 -52 5 0 14 10
19 23 5 12 21 40 35 62 14 22 28 47 32 55 4 8 23 42 42 75 20 33 43 74 51 90
8 17 22 35 30 42 8 7 11 13 5 13 -7 0 -7 3 0 8 6 4 18 23 29 42 46 86 70 126
84 143 8 9 12 17 8 17 -4 0 1 12 12 28 18 25 185 312 228 392 10 19 21 37 24
40 5 5 11 15 55 94 13 23 46 82 75 131 29 50 62 106 73 125 35 63 246 428 266
462 11 18 26 44 34 58 7 14 73 129 147 255 73 127 144 250 158 275 14 25 42
74 64 109 21 34 38 65 38 67 0 3 66 116 90 154 5 8 17 29 25 45 9 17 27 48 40
70 14 22 31 52 37 68 7 15 16 27 20 27 4 0 8 4 8 10 0 5 14 33 31 62 34 56 56
95 90 156 12 20 45 78 74 127 46 79 84 145 119 210 6 11 14 22 17 25 4 3 21
32 38 65 18 33 52 93 76 133 l44 72 -127 1 c-109 0 -264 -1 -297 -2 -5 -1 -93
0 -195 1 -102 1 -192 0 -200 -2 -18 -4 -28 -17 -62 -78 -14 -25 -35 -61 -47
-80 -11 -19 -24 -42 -28 -50 -4 -8 -20 -37 -36 -65 -33 -56 -58 -99 -95 -165
-14 -25 -45 -79 -70 -120 -25 -41 -54 -91 -64 -110 -11 -19 -37 -64 -58 -100
-21 -36 -47 -81 -57 -100 -11 -19 -55 -96 -98 -170 -44 -74 -84 -145 -89 -157
-6 -13 -14 -23 -18 -23 -5 0 -8 -4 -8 -9 0 -9 -90 -172 -100 -181 -3 -3 -12
-19 -21 -35 -13 -25 -121 -214 -195 -342 -44 -75 -168 -292 -192 -333 -14 -25
-32 -56 -41 -70 -10 -14 -28 -46 -42 -72 -13 -27 -27 -48 -31 -48 -5 0 -8 -6
-8 -13 0 -7 -11 -28 -24 -45 l-24 -33 -11 28 c-6 15 -15 35 -21 43 -6 8 -40
67 -76 130 -37 63 -80 138 -96 165 -16 28 -32 58 -35 68 -3 9 -9 17 -14 17 -5
0 -9 4 -9 10 0 5 -19 42 -43 82 -24 40 -46 80 -50 88 -4 8 -16 29 -26 45 -11
17 -28 46 -39 65 -40 73 -62 110 -86 149 -15 22 -26 45 -26 51 0 5 -5 10 -11
10 -5 0 -8 4 -4 9 3 5 0 13 -5 16 -6 4 -15 17 -20 28 -5 12 -22 43 -37 68 -16
25 -82 140 -148 255 -65 115 -122 211 -125 214 -3 3 -18 30 -34 60 -16 30 -34
62 -41 70 -6 8 -17 26 -23 40 -7 14 -20 39 -31 55 -17 28 -29 48 -80 138 -33
58 -203 351 -228 392 -13 22 -31 54 -40 72 -16 31 -18 32 -90 35 -41 2 -83 0
-93 -4 -11 -4 -22 -3 -25 2 -4 7 -13 7 -24 0 -10 -5 -21 -7 -23 -4 -8 7 -245
7 -257 -1 -6 -3 -11 -2 -11 4 0 7 -8 7 -22 2 -13 -4 -34 -5 -48 -2 -14 3 -76
5 -137 3z"/>
<path d="M21960 13482 l-65 -3 1 -1835 c1 -1009 3 -1837 6 -1840 3 -3 14 -5
24 -5 25 0 134 0 159 1 11 0 38 0 60 -1 22 0 47 0 55 0 8 0 62 0 120 0 58 0
112 0 120 0 8 0 51 0 96 0 l81 0 0 1841 0 1840 -31 0 c-341 4 -574 4 -626 2z"/>
<path d="M11227 12603 c-4 -3 -43 -7 -88 -9 -85 -4 -271 -36 -343 -58 -23 -7
-61 -19 -86 -26 -25 -8 -49 -17 -55 -20 -5 -4 -26 -12 -45 -20 -53 -19 -195
-92 -198 -102 -2 -4 -9 -8 -16 -8 -7 0 -21 -9 -31 -20 -10 -11 -24 -20 -32
-20 -7 0 -13 -4 -13 -9 0 -5 -9 -12 -19 -16 -23 -7 -207 -186 -247 -240 -16
-22 -31 -42 -34 -45 -37 -36 -167 -297 -186 -375 -2 -5 -10 -35 -19 -65 -18
-64 -22 -88 -41 -210 -16 -107 -10 -339 11 -449 3 -14 8 -40 11 -58 39 -233
196 -510 395 -698 74 -69 211 -175 228 -175 5 0 11 -4 13 -8 3 -9 224 -122
237 -122 5 0 26 -8 47 -17 22 -9 50 -18 64 -20 13 -3 29 -8 35 -12 17 -14 202
-54 300 -65 44 -5 212 -18 240 -19 32 0 249 14 254 17 3 2 29 7 56 10 28 4 70
12 95 17 25 6 55 13 67 15 12 2 33 8 45 13 13 5 28 10 33 11 59 15 180 62 270
107 74 36 215 122 235 143 3 3 27 23 55 45 65 53 185 175 185 189 0 6 -25 25
-55 41 -30 17 -148 84 -262 150 -113 66 -224 130 -246 142 l-40 22 -66 -58
c-56 -49 -161 -121 -176 -121 -2 0 -28 -11 -57 -24 -54 -25 -144 -51 -214 -62
-60 -10 -295 -12 -329 -3 -16 5 -43 11 -60 14 -16 3 -34 7 -40 9 -5 2 -23 6
-40 10 -30 8 -48 15 -136 54 -43 20 -128 73 -163 103 -69 58 -156 156 -156
176 0 6 -3 13 -7 15 -11 4 -63 103 -63 118 0 6 10 11 23 10 12 -1 24 -1 27 0
12 4 151 3 155 -2 3 -2 26 -2 52 2 27 3 63 3 80 -1 18 -3 35 -4 38 -1 3 3 33
4 68 3 34 -1 67 -2 72 -2 6 -1 42 0 80 1 39 1 75 1 80 0 6 -1 12 -2 15 -1 7 3
143 3 155 1 6 -1 14 -1 20 0 13 2 277 2 290 0 6 -1 15 -1 20 0 11 2 208 2 221
-1 5 -1 14 -1 19 0 13 3 318 3 325 0 3 -1 9 -1 13 0 14 2 131 3 142 1 6 -1 14
-1 20 0 5 1 46 1 90 0 97 -1 100 -1 174 1 l59 1 6 52 c4 28 9 74 12 101 11 91
5 287 -11 373 -1 9 -6 37 -11 62 -9 51 -11 59 -13 63 -2 1 -4 12 -7 24 -20
109 -160 415 -196 431 -5 2 -8 10 -8 17 0 7 -3 15 -7 17 -5 2 -30 30 -58 63
-53 63 -175 185 -187 185 -4 0 -14 7 -23 16 -23 23 -84 64 -95 64 -6 0 -10 4
-10 8 0 5 -51 34 -112 65 -140 69 -250 109 -368 133 -14 2 -32 7 -40 9 -8 2
-37 7 -65 11 -27 3 -53 8 -56 10 -4 2 -69 6 -144 9 -76 3 -141 8 -145 10 -4 2
-10 2 -13 -2z m246 -661 c20 -6 37 -8 37 -5 0 2 6 1 13 -4 6 -4 14 -8 17 -8
29 -4 129 -47 183 -79 64 -38 152 -114 187 -162 61 -83 78 -113 109 -193 l20
-53 -55 4 c-30 1 -54 -1 -54 -5 0 -5 -4 -6 -9 -2 -5 3 -31 5 -58 5 -26 0 -57
0 -68 0 -11 0 -38 -1 -60 -1 -22 0 -47 0 -55 0 -8 0 -62 0 -120 0 -58 0 -111
0 -117 0 -7 1 -19 1 -25 2 -7 0 -46 0 -85 -1 -40 -1 -77 1 -83 5 -5 3 -10 3
-10 -2 0 -8 -68 -8 -173 -2 -25 2 -49 1 -52 -2 -3 -3 -22 -3 -42 0 -20 3 -67
4 -105 1 -38 -3 -74 -2 -80 1 -5 4 -25 3 -43 -1 -18 -4 -38 -4 -45 0 -7 4 -27
4 -46 0 -18 -4 -36 -5 -39 -2 -3 4 -23 5 -45 3 -36 -2 -39 0 -35 20 5 27 68
156 92 188 23 30 130 139 163 166 39 31 176 96 235 111 121 31 355 40 448 16z"/>
<path d="M16799 12606 c-2 -3 -46 -7 -98 -10 -90 -6 -199 -20 -251 -31 -14 -3
-35 -8 -47 -11 -12 -2 -34 -9 -48 -14 -14 -5 -25 -7 -25 -5 0 3 -16 -1 -35 -9
-20 -9 -38 -15 -40 -16 -12 -1 -27 -6 -58 -18 -16 -7 -31 -12 -33 -12 -24 0
-291 -149 -326 -183 -7 -7 -29 -24 -48 -38 -20 -15 -60 -53 -90 -84 -30 -32
-62 -65 -71 -74 -40 -39 -133 -181 -179 -272 -43 -86 -88 -208 -105 -281 -35
-156 -40 -208 -40 -393 1 -146 5 -214 18 -270 3 -11 8 -40 12 -65 11 -68 70
-240 110 -322 123 -248 338 -465 590 -596 168 -87 354 -144 540 -167 39 -4
190 -17 210 -17 35 0 248 13 285 17 25 4 77 13 115 21 39 9 79 17 89 19 36 8
151 47 226 78 83 34 290 153 290 167 0 5 9 12 20 15 22 7 240 219 240 233 0 5
11 22 24 37 29 33 62 93 56 98 -5 3 -198 115 -254 147 -18 10 -64 37 -101 59
-37 23 -69 41 -71 41 -2 0 -27 14 -56 31 -70 42 -118 69 -121 69 -2 0 -22 -29
-46 -64 -38 -57 -96 -119 -174 -183 -25 -21 -165 -92 -191 -97 -6 -2 -29 -8
-51 -14 -76 -22 -121 -26 -250 -26 -151 1 -185 5 -290 39 -150 49 -293 157
-377 288 -41 63 -85 160 -93 206 -3 19 -8 38 -11 42 -21 35 -27 311 -8 399 30
143 69 232 143 330 42 55 141 149 159 150 6 0 12 4 12 8 0 16 145 80 235 103
151 39 382 32 520 -15 6 -1 19 -6 30 -10 82 -28 175 -88 244 -156 85 -84 103
-105 126 -150 8 -16 18 -30 20 -30 3 0 65 34 137 76 179 104 176 102 322 185
71 41 134 82 140 91 8 13 6 22 -12 41 -12 13 -22 26 -22 30 0 16 -149 185
-201 229 -24 20 -56 47 -71 60 -43 37 -216 141 -285 172 -77 33 -223 86 -223
81 0 -3 -11 0 -25 5 -27 10 -36 12 -125 29 -83 16 -125 21 -239 26 -57 3 -107
7 -111 10 -4 2 -9 3 -11 1z"/>
<path d="M19908 12605 c-2 -3 -51 -7 -109 -10 -149 -8 -175 -11 -274 -32 -11
-2 -33 -7 -49 -9 -16 -3 -74 -20 -130 -38 -187 -61 -375 -165 -499 -276 -166
-148 -278 -303 -354 -490 -42 -104 -46 -114 -48 -125 -2 -5 -10 -37 -18 -70
-9 -33 -18 -73 -21 -90 -3 -16 -8 -40 -10 -52 -22 -106 -22 -450 0 -484 2 -4
6 -27 9 -50 12 -101 79 -280 157 -419 20 -37 70 -114 77 -120 3 -3 19 -23 36
-45 97 -132 309 -300 493 -393 57 -29 218 -92 235 -92 8 0 17 -3 21 -7 3 -4
12 -8 19 -10 7 -1 32 -7 57 -13 131 -33 350 -64 430 -61 29 1 90 1 97 0 5 -1
10 -1 13 1 3 1 30 3 61 5 59 3 146 12 189 20 94 16 114 21 220 52 47 13 99 31
117 39 17 8 36 14 41 14 6 0 32 11 59 24 26 13 59 29 73 35 26 12 36 18 105
60 92 57 195 139 278 222 82 83 100 109 77 109 -5 0 -62 30 -125 68 -64 37
-133 76 -153 88 -20 11 -82 47 -137 79 -55 32 -119 68 -142 81 l-42 24 -38
-35 c-21 -19 -45 -41 -53 -49 -71 -66 -256 -149 -394 -177 -69 -15 -268 -19
-336 -8 -30 5 -68 11 -85 13 -89 15 -235 78 -329 143 -44 31 -145 128 -183
176 -23 29 -94 169 -89 175 5 4 198 6 222 1 5 -1 14 0 19 1 11 2 208 2 221 -1
5 -1 14 -1 19 0 13 3 318 3 325 0 3 -1 9 -1 13 0 14 2 131 3 142 1 6 -1 15 -1
20 0 12 2 187 2 200 0 6 -2 15 -1 20 0 11 2 208 2 221 -1 5 -1 14 -1 19 0 13
3 318 3 325 0 3 -1 9 -1 13 0 13 2 131 3 142 1 6 -1 26 -1 45 0 87 5 100 5
100 -3 0 -4 4 -6 10 -2 5 3 43 6 85 6 41 0 75 4 76 7 0 4 2 16 4 27 26 131 26
377 0 520 -11 62 -48 210 -55 220 -4 6 -10 23 -14 39 -4 16 -27 68 -50 115
-91 181 -132 238 -271 376 -84 82 -90 88 -186 152 -150 100 -364 192 -509 219
-14 2 -47 9 -75 14 -82 15 -134 21 -222 25 -46 2 -87 6 -92 9 -4 3 -10 3 -13
1z m226 -674 c218 -58 380 -188 471 -376 43 -89 49 -105 44 -109 -4 -5 -33 -6
-148 -6 -29 0 -57 -2 -60 -5 -4 -2 -13 0 -19 4 -7 4 -33 5 -57 1 -25 -4 -47
-5 -49 -2 -5 4 -229 5 -251 1 -5 -1 -14 -1 -19 0 -21 4 -136 4 -140 0 -2 -2
-41 -2 -86 1 -45 3 -86 2 -91 -1 -6 -3 -30 -3 -54 1 -24 4 -49 4 -55 0 -7 -4
-26 -4 -43 -1 -18 4 -49 4 -70 0 -20 -3 -40 -2 -43 2 -3 5 -9 7 -13 5 -8 -6
-51 -7 -203 -6 -122 1 -115 -9 -67 96 98 218 285 358 544 409 96 18 315 11
409 -14z"/>
<path d="M13335 12520 l-50 -5 -2 -815 c-1 -448 -2 -821 -2 -827 0 -7 0 -251
1 -542 l2 -529 66 -2 c62 -1 73 -1 103 1 13 1 80 0 137 -2 19 -1 42 -1 50 0
30 1 259 2 267 0 4 -1 13 0 18 1 6 1 26 2 45 3 l34 2 2 650 c0 358 4 668 8
690 25 137 104 298 197 399 175 191 497 283 769 221 14 -4 37 -8 53 -11 l27
-5 0 386 0 386 -87 -5 c-112 -7 -192 -18 -251 -35 -18 -5 -35 -10 -37 -10 -3
-1 -7 -2 -10 -2 -3 -1 -9 -3 -15 -4 -5 -1 -11 -3 -12 -4 -2 -2 -14 -4 -27 -7
-47 -8 -209 -85 -282 -134 -64 -41 -181 -146 -214 -191 -52 -69 -105 -187
-105 -231 0 -10 -4 -18 -8 -18 -4 0 -8 142 -7 316 0 217 -3 318 -11 321 -16 6
-601 9 -659 3z"/>
</g>
</svg>
